<svg xmlns="http://www.w3.org/2000/svg" viewBox="0 0 364.1 143.9"><path d="M190.7 47.1c0 3.6-2.9 6.5-6.5 6.5s-6.5-2.9-6.5-6.5 2.8-6.5 6.5-6.5c3.7.1 6.5 3 6.5 6.5zm-26.8 13.1v1.6s-3.1-4-9.7-4c-10.9 0-19.4 8.3-19.4 19.8 0 11.4 8.4 19.8 19.4 19.8 6.7 0 9.7-4.1 9.7-4.1V95c0 .8.6 1.4 1.4 1.4h8.1V58.8h-8.1c-.8 0-1.4.7-1.4 1.4zm0 24.1c-1.5 2.2-4.5 4.1-8.1 4.1-6.4 0-11.3-4-11.3-10.8 0-6.8 4.9-10.8 11.3-10.8 3.5 0 6.7 2 8.1 4.1zm15.5-25.5h9.6v37.6h-9.6zm143.4-1c-6.6 0-9.7 4-9.7 4V40.7h-9.6v55.7h8.1c.8 0 1.4-.7 1.4-1.4v-1.7s3.1 4.1 9.7 4.1c10.9 0 19.4-8.4 19.4-19.8s-8.5-19.8-19.3-19.8zm-1.6 30.5c-3.7 0-6.6-1.9-8.1-4.1V70.8c1.5-2 4.7-4.1 8.1-4.1 6.4 0 11.3 4 11.3 10.8 0 6.8-4.9 10.8-11.3 10.8zm-22.7-14.2v22.4h-9.6V75.2c0-6.2-2-8.7-7.4-8.7-2.9 0-5.9 1.5-7.8 3.7v26.2h-9.6V58.8h7.6c.8 0 1.4.7 1.4 1.4v1.6c2.8-2.9 6.5-4 10.2-4 4.2 0 7.7 1.2 10.5 3.6 3.4 2.8 4.7 6.4 4.7 12.7zm-57.7-16.3c-6.6 0-9.7 4-9.7 4V40.7h-9.6v55.7h8.1c.8 0 1.4-.7 1.4-1.4v-1.7s3.1 4.1 9.7 4.1c10.9 0 19.4-8.4 19.4-19.8.1-11.4-8.4-19.8-19.3-19.8zm-1.6 30.5c-3.7 0-6.6-1.9-8.1-4.1V70.8c1.5-2 4.7-4.1 8.1-4.1 6.4 0 11.3 4 11.3 10.8 0 6.8-4.9 10.8-11.3 10.8zm-26-30.5c2.9 0 4.4.5 4.4.5v8.9s-8-2.7-13 3v26.3H195V58.8h8.1c.8 0 1.4.7 1.4 1.4v1.6c1.8-2.1 5.7-4 8.7-4zM113.5 93c-.5-1.2-1-2.5-1.5-3.6-.8-1.8-1.6-3.5-2.3-5.1l-.1-.1C102.7 69.2 95.31 54 87.51 39l-.3-.6c-.8-1.5-1.6-3.1-2.4-4.7-1-1.8-2-3.7-3.6-5.5-3.2-4-7.8-6.2-12.7-6.2-5 0-9.5 2.2-12.8 6-1.5 1.8-2.6 3.7-3.6 5.5-.8 1.6-1.6 3.2-2.4 4.7l-.3.6c-7.7 15-15.2 30.2-22.1 45.2l-.1.2c-.7 1.6-1.5 3.3-2.3 5.1-.5 1.1-1 2.3-1.5 3.6-1.3 3.7-1.7 7.2-1.2 10.8 1.1 7.5 6.1 13.8 13 16.6 2.6 1.1 5.3 1.6 8.1 1.6.8 0 1.8-.1 2.6-.2 3.3-.4 6.7-1.5 10-3.4 4.1-2.3 8-5.6 12.4-10.4 4.4 4.8 8.4 8.1 12.4 10.4 3.3 1.9 6.7 3 10 3.4.8.1 1.8.2 2.6.2 2.8 0 5.6-.5 8.09-1.6 7-2.8 11.9-9.2 13-16.6.8-3.5.4-7-.9-10.7zm-45.09 5.2c-5.4-6.8-8.9-13.2-10.1-18.6-.5-2.3-.6-4.3-.3-6.1.2-1.6.8-3 1.6-4.2 1.9-2.7 5.1-4.4 8.8-4.4 3.7 0 7 1.6 8.8 4.4.8 1.2 1.4 2.6 1.6 4.2.3 1.8.2 3.9-.3 6.1-1.2 5.3-4.7 11.7-10.1 18.6zm39.89 4.7c-.7 5.2-4.2 9.7-9.09 11.7-2.4 1-5 1.3-7.6 1-2.5-.3-5-1.1-7.6-2.6-3.6-2-7.2-5.1-11.4-9.7 6.6-8.1 10.6-15.5 12.1-22.1.7-3.1.8-5.9.5-8.5-.4-2.5-1.3-4.8-2.7-6.8-3.1-4.5-8.3-7.1-14.1-7.1-5.8 0-11 2.7-14.1 7.1-1.4 2-2.3 4.3-2.7 6.8-.4 2.6-.3 5.5.5 8.5 1.5 6.6 5.6 14.1 12.1 22.2-4.1 4.6-7.8 7.7-11.4 9.7-2.6 1.5-5.1 2.3-7.6 2.6-2.7.3-5.3-.1-7.6-1-4.9-2-8.4-6.5-9.1-11.7-.3-2.5-.1-5 .9-7.8.3-1 .8-2 1.3-3.2.7-1.6 1.5-3.3 2.3-5l.1-.2c6.9-14.9 14.3-30.1 22-44.9l.3-.6c.8-1.5 1.6-3.1 2.4-4.6.8-1.6 1.7-3.1 2.8-4.4 2.1-2.4 4.9-3.7 8-3.7 3.1 0 5.9 1.3 8 3.7 1.1 1.3 2 2.8 2.8 4.4.8 1.5 1.6 3.1 2.4 4.6l.3.6c7.6 14.9 15 30.1 21.89 45v.1c.8 1.6 1.5 3.4 2.3 5 .5 1.2 1 2.2 1.3 3.2.8 2.6 1.1 5.1.7 7.7z"/></svg>