<svg xmlns="http://www.w3.org/2000/svg" viewBox="0 0 344 107.9"><path d="M56.54 41.53c2.45 0 3.88-.15 4.38-.15.6 0 1.18.5 1.18 1.19 0 .2 0 .35-.1.48-.34.87-1.82 4-4.58 6.69-.32.3-.67.35-.91.35s-.59 0-.9-.33c-2.76-2.69-4.25-5.82-4.57-6.69 0-.13-.1-.27-.1-.47 0-.7.57-1.2 1.18-1.2.49 0 1.91.13 4.36.13zm-8.42 27.51c-.18-.19-.46-.39-.91-.39-.59 0-.94.4-1.07.6-3.29 5.02-4.99 9.75-5.23 14.5 0 .34.13.7.34.95.25.25.58.42.94.42H50c.68 0 1.24-.52 1.29-1.19.18-2.3.89-4.59 2.18-7 .46-.84.1-1.62-.16-1.96-1.26-1.69-2.84-3.48-5.19-5.93m31.62-31.38c-.23-.18-.51-.26-.78-.26-.16 0-.31 0-.46.1-2.78 1.07-5.61 1.87-8.19 2.47-.52.12-.95.52-1.13.98-1.87 5.15-6.67 10.05-11.7 15.18-.21.21-.49.45-.95.45-.46 0-.74-.25-.95-.45-5.03-5.13-9.82-10.01-11.7-15.16-.17-.47-.61-.85-1.13-.98-2.58-.6-5.41-1.43-8.21-2.5 0-.1-.41-.1-.45-.1-.42 0-.55.1-.76.26-.41.27-.54.71-.5 1.14.42 4.28 2.09 8.46 5.16 12.84 2.87 4.12 6.61 7.94 10.23 11.63 6.66 6.8 12.96 13.22 13.51 20.68 0 .67.61 1.17 1.29 1.17h7.83c.34 0 .69 0 .93-.42.25-.41.38-.62.34-.96-.25-4.99-2.12-9.97-5.73-15.24-.76-1.11-1.57-2.19-2.41-3.24a.9.9 0 0 1 .1-1.23c.25-.25.53-.53.79-.8 3.62-3.69 7.35-7.51 10.22-11.63 3.06-4.38 4.75-8.54 5.18-12.82 0-.39-.16-.85-.51-1.11m11.02-15c-.3-.41-.8-.66-1.31-.66-.26 0-.52.1-.75.19-9.6 5.26-20.73 8.03-32.18 8.03-11.46 0-22.57-2.77-32.18-8.03-.41-.12-.5-.19-.75-.19-.54 0-1 .25-1.29.66-.46.6-.5 1.61.42 2.22a57.23 57.23 0 0 0 15.74 8.3 56.61 56.61 0 0 0 18.18 2.99c6.22 0 12.33-1.01 18.18-2.99a56.964 56.964 0 0 0 15.76-8.31c.65-.6.64-1.61.18-2.21M313.9 49.91c-3.7 0-8.8 1.28-13.1 3.3l-.5-1.76c-.2-.5-.6-.85-1.1-.85H294c-.7 0-1.2.53-1.2 1.19V83.9c0 .66.5 1.19 1.2 1.19h7c.6 0 1.2-.53 1.2-1.19V61.66c2.5-1.29 6.1-2.62 8.2-2.62 1.6 0 2.2.59 2.2 2.17V83.9c0 .66.5 1.19 1.2 1.19h7c.6 0 1.2-.53 1.2-1.19V60.32c0-6.91-2.7-10.41-8.1-10.41m-35.4 22.63v4.14c-1.2.62-3.3 1.51-5.8 1.51-2.2 0-2.9-.67-2.9-2.86 0-2.13.4-2.79 3-2.79h5.7zm-4.7-22.53c-3.6 0-7.9.55-11 1.42-.6.17-1 .74-.9 1.34l.8 5.1c.1.33.3.6.5.79.3.16.6.25.9.2 2.9-.56 6-.88 8.5-.88 5.1 0 5.9 1.06 5.9 4.49v3H271c-7.2 0-10.3 2.97-10.3 9.93 0 6.66 3.4 10.47 9.2 10.47 3.4 0 6.8-.94 9.7-2.66l.3 1.1c.1.52.6.88 1.1.88h5.7c.7 0 1.2-.54 1.2-1.19V62.61c0-9.19-3.8-12.6-14.1-12.6m-18.3.65h-7c-.7 0-1.2.53-1.2 1.19v32.11c0 .66.5 1.19 1.2 1.19h7c.7 0 1.2-.53 1.2-1.19V51.85c0-.66-.5-1.19-1.2-1.19m0-13.25h-7c-.7 0-1.2.53-1.2 1.19v6.21c0 .66.5 1.19 1.2 1.19h7c.7 0 1.2-.53 1.2-1.19V38.6c0-.66-.5-1.19-1.2-1.19m-22.7 26.38c-4.4-1.12-4.4-1.17-4.4-3.56 0-1.61.2-2.38 3.8-2.38 2.5 0 6.1.43 8.4.83.3 0 .7 0 .9-.21.3-.21.5-.48.5-.8l.7-5.37c0-.61-.4-1.17-1-1.31-2.6-.62-6.4-1.03-9.5-1.03-10.8 0-13 4.08-13 10.2 0 6.73 1.2 8.99 9.5 11.01 5.5 1.31 5.5 2.29 5.5 3.91 0 2.12-.2 2.85-3.8 2.85-2.9 0-6.2-.44-9.1-1.22-.4-.1-.7 0-1 .12-.3.17-.4.46-.5.79l-.9 5.08c-.2.59.2 1.16.8 1.35 3.2 1.03 7.7 1.76 11.1 1.76 10.5 0 12.6-4.38 12.6-10.96 0-7.24-1.3-8.59-10.6-11.06m-27.1 0c-4.4-1.12-4.4-1.17-4.4-3.56 0-1.61.2-2.38 3.8-2.38 2.5 0 6.1.43 8.4.83.3 0 .7 0 .9-.21.3-.21.5-.48.5-.8l.7-5.37c0-.61-.4-1.17-1-1.31-2.6-.62-6.4-1.03-9.5-1.03-10.8 0-13 4.08-13 10.2 0 6.73 1.2 8.99 9.5 11.01 5.5 1.31 5.5 2.29 5.5 3.91 0 2.12-.2 2.85-3.8 2.85-2.9 0-6.2-.44-9.1-1.22-.4-.1-.7 0-1 .12-.3.17-.4.46-.5.79l-.9 5.08c-.2.59.2 1.16.8 1.35 3.2 1.03 7.7 1.76 11.1 1.76 10.5 0 12.6-4.38 12.6-10.96 0-7.24-1.3-8.59-10.6-11.06m-27.1 8.75v4.14c-1.2.62-3.3 1.51-5.8 1.51-2.2 0-2.9-.67-2.9-2.86 0-2.13.4-2.79 3-2.79h5.7zm-4.7-22.53c-3.6 0-7.9.55-11 1.42-.6.17-1 .74-.9 1.34l.8 5.1c.1.33.3.6.5.79.3.16.6.25.9.2 2.9-.56 6-.88 8.5-.88 5.1 0 5.9 1.06 5.9 4.49v3h-7.5c-7.2 0-10.3 2.97-10.3 9.93 0 6.66 3.4 10.47 9.2 10.47 3.4 0 6.8-.94 9.7-2.66l.3 1.1c.1.52.6.88 1.1.88h5.7c.7 0 1.2-.54 1.2-1.19V62.61c0-9.19-3.8-12.6-14.1-12.6m-18-12.6h-7c-.7 0-1.2.53-1.2 1.19v45.3c0 .63.5 1.17 1.2 1.17h7c.7 0 1.2-.54 1.2-1.17V38.6c0-.66-.5-1.19-1.2-1.19m-13 40.88c-.1-.33-.2-.63-.5-.81-.3-.19-.6-.25-1-.17-1.2.31-2.4.48-3.3.48-1.7 0-2.5-.75-2.5-2.44V58.33h6.8c.7 0 1.2-.54 1.2-1.19v-5.31c0-.66-.5-1.19-1.2-1.19h-6.8v-8.19c0-.34-.2-.68-.4-.9-.3-.21-.6-.34-1-.29l-7 .99c-.6.1-1 .58-1 1.17v7.22h-3.9c-.6 0-1.2.53-1.2 1.19v5.31c0 .65.6 1.19 1.2 1.19h3.9v18.11c0 6.23 3.2 9.38 9.7 9.38 1.8 0 4.9-.42 7-1.13.5-.17.9-.74.8-1.3l-.8-5.1zm-33.4-39.13c-.1-.5-.6-.83-1.1-.83H97.28c-.52 0-.98.33-1.14.83l-14.01 44.4c-.12.42 0 .8.17 1.09.21.42.58.5.96.5h7.64c.53 0 1-.42 1.15-.88l9.65-32.66s.2-.82 1.1-.82c.9 0 1.1.85 1.1.85l4.5 15.49h-6c-.6 0-1 .33-1.2.87l-1.69 6.13c-.1.38 0 .74.21 1.04.21.29.58.47.98.47h10.2l2.7 8.67c.1.46.6.8 1.1.8h7.7c.4 0 .7 0 1-.46.2-.42.3-.71.1-1.09l-14-44.4z"/></svg>