<?xml version="1.0" encoding="iso-8859-1"?>
<!-- Generator: Adobe Illustrator 19.0.0, SVG Export Plug-In . SVG Version: 6.00 Build 0)  -->
<svg version="1.1" id="Layer_1" xmlns="http://www.w3.org/2000/svg" xmlns:xlink="http://www.w3.org/1999/xlink" x="0px" y="0px"
	 viewBox="0 0 512 512" style="enable-background:new 0 0 512 512;" xml:space="preserve">
<g>
	<polygon style="fill:#FFD102;" points="371.342,210.903 469.209,150.675 379.787,95.648 281.922,155.874 	"/>
	<polygon style="fill:#FFD102;" points="127.994,210.903 225.863,150.675 136.44,95.648 38.576,155.874 	"/>
</g>
<polygon style="fill:#FFE368;" points="383.997,197.691 255.992,118.921 127.994,197.691 0,118.921 22.505,382.593 489.495,382.593 
	512,118.921 "/>
<g>
	<circle style="fill:#FFAA0E;" cx="99.947" cy="320.636" r="8.44"/>
	<circle style="fill:#FFAA0E;" cx="66.184" cy="286.878" r="8.44"/>
	<path style="fill:#FFAA0E;" d="M489.495,371.341H22.505C10.076,371.341,0,381.416,0,393.846c0,12.43,10.076,22.505,22.505,22.505
		h466.989c12.43,0,22.505-10.076,22.505-22.505C512,381.416,501.924,371.341,489.495,371.341z"/>
</g>
<g>
</g>
<g>
</g>
<g>
</g>
<g>
</g>
<g>
</g>
<g>
</g>
<g>
</g>
<g>
</g>
<g>
</g>
<g>
</g>
<g>
</g>
<g>
</g>
<g>
</g>
<g>
</g>
<g>
</g>
</svg>
