<svg xmlns="http://www.w3.org/2000/svg" >
  <symbol viewBox="0 0 24 24" id="icon-plus">
    <path d="M19 13h-6v6h-2v-6H5v-2h6V5h2v6h6v2z"/>
  </symbol>
  <symbol viewBox="0 0 24 24" id="icon-tic">
    <path d="M9 16.2L4.8 12l-1.4 1.4L9 19 21 7l-1.4-1.4L9 16.2z"/>
  </symbol>
  <symbol viewBox="0 0 24 24" id="icon-link">
    <path d="M3.9 12c0-1.71 1.39-3.1 3.1-3.1h4V7H7c-2.76 0-5 2.24-5 5s2.24 5 5 5h4v-1.9H7c-1.71 0-3.1-1.39-3.1-3.1zM8 13h8v-2H8v2zm9-6h-4v1.9h4c1.71 0 3.1 1.39 3.1 3.1s-1.39 3.1-3.1 3.1h-4V17h4c2.76 0 5-2.24 5-5s-2.24-5-5-5z"/>
  </symbol>
  <symbol viewBox="0 0 24 24" id="icon-palettes">
    <path d="M12 3c-4.97 0-9 4.03-9 9s4.03 9 9 9c.83 0 1.5-.67 1.5-1.5 0-.39-.15-.74-.39-1.01-.23-.26-.38-.61-.38-.99 0-.83.67-1.5 1.5-1.5H16c2.76 0 5-2.24 5-5 0-4.42-4.03-8-9-8zm-5.5 9c-.83 0-1.5-.67-1.5-1.5S5.67 9 6.5 9 8 9.67 8 10.5 7.33 12 6.5 12zm3-4C8.67 8 8 7.33 8 6.5S8.67 5 9.5 5s1.5.67 1.5 1.5S10.33 8 9.5 8zm5 0c-.83 0-1.5-.67-1.5-1.5S13.67 5 14.5 5s1.5.67 1.5 1.5S15.33 8 14.5 8zm3 4c-.83 0-1.5-.67-1.5-1.5S16.67 9 17.5 9s1.5.67 1.5 1.5-.67 1.5-1.5 1.5z"/>
  </symbol>
  <symbol viewBox="0 0 24 24" id="icon-close">
    <path d="M19 6.41L17.59 5 12 10.59 6.41 5 5 6.41 10.59 12 5 17.59 6.41 19 12 13.41 17.59 19 19 17.59 13.41 12z"/>
  </symbol>
  <symbol viewBox="0 0 24 24" id="icon-bold">
    <path d="M15.6 10.79c.97-.67 1.65-1.77 1.65-2.79 0-2.26-1.75-4-4-4H7v14h7.04c2.09 0 3.71-1.7 3.71-3.79 0-1.52-.86-2.82-2.15-3.42zM10 6.5h3c.83 0 1.5.67 1.5 1.5s-.67 1.5-1.5 1.5h-3v-3zm3.5 9H10v-3h3.5c.83 0 1.5.67 1.5 1.5s-.67 1.5-1.5 1.5z"/>
  </symbol>
  <symbol viewBox="0 0 24 24" id="icon-italic">
    <path d="M10 4v3h2.21l-3.42 8H6v3h8v-3h-2.21l3.42-8H18V4z"/>
  </symbol>
  <symbol viewBox="0 0 24 24" id="icon-underline">
    <path d="M12 17c3.31 0 6-2.69 6-6V3h-2.5v8c0 1.93-1.57 3.5-3.5 3.5S8.5 12.93 8.5 11V3H6v8c0 3.31 2.69 6 6 6zm-7 2v2h14v-2H5z"/>
  </symbol>
  <symbol viewBox="0 0 24 24" id="icon-center">
    <path d="M7 15v2h10v-2H7zm-4 6h18v-2H3v2zm0-8h18v-2H3v2zm4-6v2h10V7H7zM3 3v2h18V3H3z"/>
  </symbol>
  <symbol viewBox="0 0 24 24" id="icon-left">
    <path d="M15 15H3v2h12v-2zm0-8H3v2h12V7zM3 13h18v-2H3v2zm0 8h18v-2H3v2zM3 3v2h18V3H3z"/>
  </symbol>
  <symbol viewBox="0 0 24 24" id="icon-right">
    <path d="M3 21h18v-2H3v2zm6-4h12v-2H9v2zm-6-4h18v-2H3v2zm6-4h12V7H9v2zM3 3v2h18V3H3z"/>
  </symbol>
  <symbol viewBox="0 0 24 24" id="icon-trash">
    <path d="M6 19c0 1.1.9 2 2 2h8c1.1 0 2-.9 2-2V7H6v12zm2.46-7.12l1.41-1.41L12 12.59l2.12-2.12 1.41 1.41L13.41 14l2.12 2.12-1.41 1.41L12 15.41l-2.12 2.12-1.41-1.41L10.59 14l-2.13-2.12zM15.5 4l-1-1h-5l-1 1H5v2h14V4z"/>
  </symbol>
  <symbol viewBox="0 0 24 24" id="icon-align">
    <path d="M3 21h18v-2H3v2zm0-4h18v-2H3v2zm0-4h18v-2H3v2zm0-4h18V7H3v2zm0-6v2h18V3H3z"/>
  </symbol>
  <symbol viewBox="0 0 24 24" id="icon-textStyle">
    <path d="M23 7V1h-6v2H7V1H1v6h2v10H1v6h6v-2h10v2h6v-6h-2V7h2zM3 3h2v2H3V3zm2 18H3v-2h2v2zm12-2H7v-2H5V7h2V5h10v2h2v10h-2v2zm4 2h-2v-2h2v2zM19 5V3h2v2h-2zm-5.27 9h-3.49l-.73 2H7.89l3.4-9h1.4l3.41 9h-1.63l-.74-2zm-3.04-1.26h2.61L12 8.91l-1.31 3.83z"/>
  </symbol>

</svg>
