<svg xmlns="http://www.w3.org/2000/svg" viewBox="0 0 433 171"><path d="M71.922 120.4c14.64 0 25.672-4.79 34.308-13.79 8.89-8.9 11.65-21.36 11.65-31.44 0-3.13-.24-6-.72-8.41H71.922V80.2h32.158c-.96 7.56-3.49 13.08-7.314 16.92-4.688 4.67-12 9.84-24.844 9.84-19.797 0-35.28-15.96-35.28-35.76 0-19.8 15.483-35.77 35.28-35.77 10.672 0 18.485 4.21 24.235 9.61l9.483-9.48C97.594 27.89 86.922 22 71.922 22 44.797 22 22 44.07 22 71.2c0 27.12 22.797 49.2 49.922 49.2zm82.568 0c17.51 0 31.79-13.44 31.79-31.69 0-18.35-14.28-31.67-31.79-31.67-17.54 0-31.82 13.32-31.82 31.67 0 18.25 14.28 31.69 31.82 31.69zm0-12.48c-9.61 0-17.9-7.92-17.9-19.21 0-11.39 8.29-19.18 17.9-19.18 9.59 0 17.87 7.79 17.87 19.18 0 11.29-8.28 19.21-17.87 19.21zm69.35 12.48c17.52 0 31.8-13.44 31.8-31.69 0-18.35-14.28-31.67-31.8-31.67-17.53 0-31.81 13.32-31.81 31.67 0 18.25 14.28 31.69 31.81 31.69zm0-12.48c-9.6 0-17.89-7.92-17.89-19.21 0-11.39 8.29-19.18 17.89-19.18 9.6 0 17.88 7.79 17.88 19.18 0 11.29-8.28 19.21-17.88 19.21zM292 148.84c16.31 0 30.13-9.59 30.13-33V58.96h-13.21v5.16h-.48c-3.13-3.72-9.13-7.08-16.67-7.08-15.85 0-30.36 13.92-30.36 31.8 0 17.77 14.51 31.56 30.36 31.56 7.54 0 13.54-3.36 16.67-7.2h.48v4.56c0 12.13-6.48 18.6-16.92 18.6-8.51 0-13.8-6.11-15.97-11.29l-12.11 5.05c3.49 8.41 12.72 18.72 28.08 18.72zm.95-40.92c-9.59 0-17.64-8.03-17.64-19.08 0-11.16 8.05-19.31 17.64-19.31 9.49 0 16.93 8.15 16.93 19.31 0 11.05-7.44 19.08-16.93 19.08zm52.69-82.56h-13.92v93.12h13.92zm38.16 95.04c14.51 0 22.92-8.87 26.4-14.04l-10.81-7.19c-3.59 5.26-8.51 8.75-15.59 8.75s-12.13-3.24-15.36-9.6l42.36-17.53-1.44-3.59c-2.64-7.08-10.69-20.16-27.12-20.16-16.32 0-29.88 12.85-29.88 31.67 0 17.77 13.44 31.69 31.44 31.69zm-17.64-32.64c-.36-12.23 9.48-18.48 16.56-18.48 5.52 0 10.2 2.76 11.77 6.72zm0 0"/></svg>