<svg xmlns="http://www.w3.org/2000/svg" viewBox="0 0 178.32 67.04"><path d="M137.04 29.05c-2.03-.54-4.08-.54-6.1 0-3.03.81-5.06 2.72-5.71 5.77-.36 1.66-.43 3.43-.33 5.14.21 3.9 2.63 6.68 6.37 7.55h.16c.14 0 .29.1.43.1h.15c.18 0 .4.1.63.1.73.1 1.67.13 2.45 0h.12c3.87-.2 6.8-2.64 7.66-6.38.47-2.05.47-4.11 0-6.17-.72-3.23-2.68-5.3-5.89-6.16zm.25 11.28c0 .12 0 .24-.1.36-.39 1.72-1.64 2.65-3.31 2.58-1.79-.1-3.02-1.13-3.2-2.92-.12-1.31-.14-2.64 0-3.95.17-2.07 1.46-3.2 3.4-3.16 1.59 0 2.73.93 3.13 2.47.38 1.53.11 4.27.1 4.62zm7.78-20.41v27.52h5.84v-8.42l5.38 8.43h6.19l-5.84-9.16 5.84-9.12h-6.19l-5.38 8.41V19.21zM82.9 38.89c0-1.28 0-2.56-.19-3.82-.5-3.44-2.59-5.62-5.98-6.19-1.29-.22-2.66-.19-3.98-.1-3.6.34-6.33 2.58-6.89 5.96-.34 2.05-.38 4.22-.11 6.27.41 3.09 1.92 5.06 4.52 6.01 1.19.36 7.01 1.88 12.13-.7l-.21-.75c-.24-1.01-.52-2-.79-3v-.1s-.11 0-.3.1c-.22.1-.45.13-.67.2h-.12c-.78.22-1.89.49-3.06.64-.98.1-1.98.1-2.98 0-1.63-.27-2.87-1.14-2.81-3.2h11.45v-.2zm-5.25-2.51h-6.31c0-1.25.19-2.42 1.3-3.13 1.18-.75 2.49-.78 3.71-.11 1.24.68 1.33 1.91 1.3 3.24zm-12.72 9.73c-.25-.92-.54-1.84-.82-2.72l-.26-.98s-6.83 3.28-7.89-2.95c-.1-1.03-.1-2.09.1-3.1.27-1.91 1.43-2.94 3.29-3.11.63-.1 1.28 0 1.9.1.85.14 1.67.4 2.6.63.32-.98.65-1.96.96-2.94.1-.15.1-.29.12-.4l.15-.59c0-.1-.13-.16-.26-.24-.16-.13-.42-.24-.84-.39-.17-.1-.33-.12-.5-.17-.15-.1-.25-.1-.25-.1-1.79-.51-3.63-.55-5.5-.36-3.94.42-6.62 2.74-7.36 6.58-.39 2.02-.37 4.07.1 6.09.67 3.03 2.51 5 5.5 5.87 1.95.57 3.95.6 5.94.29.84-.13 2.04-.56 2.9-.87l.33-.12-.16-.52zm-22.08-14.8c-.1-.1-.14-.15-.19-.21l-.14-.14c-1.31-1.34-1.81-1.67-2.84-1.97-3.96-1.17-7.82.91-9.04 4.89-.75 2.45-.76 4.97-.32 7.45.95 5.37 4.94 7.17 9.2 6.28 1.31-.27 2.28-1.09 3.18-2.22 0 0 .1-.1.18-.29v2.36h5.45V28.97h-5.45v2.34zm-.48 9.29c-.18 1.71-1.56 2.73-3.2 2.67-1.67-.1-2.78-.96-3.14-2.57-.43-2.28.1-5 .12-5.22.44-1.53 1.55-2.29 3.19-2.25 1.61 0 2.84.99 3.03 2.65.16 1.56.16 3.17 0 4.72zM29.53 28.96h-4.17v-2.77c.3-2.62 4.63-2.12 4.63-2.12V19.59c-.15 0-8.6-2.04-10.28 4.39-.26.8-.25 4.49-.24 4.95h-3.61v4.93h3.83v13.4h5.58v-13.4h4.27l.48-4.93h-.48zm87.61.09c-2.03-.54-4.08-.54-6.1 0-3.03.81-5.06 2.72-5.72 5.77-.36 1.66-.43 3.43-.33 5.14.22 3.9 2.63 6.68 6.38 7.55h.16c.14 0 .29.1.43.1h.15c.18 0 .4.1.63.1.73.1 1.67.13 2.45 0h.12c3.87-.2 6.8-2.64 7.66-6.38.47-2.05.47-4.11 0-6.17-.73-3.22-2.68-5.3-5.89-6.16zm.24 11.28c0 .12 0 .24-.1.36-.39 1.72-1.64 2.65-3.31 2.58-1.79-.1-3.02-1.13-3.2-2.92a20.85 20.85 0 0 1 0-3.95c.17-2.07 1.46-3.2 3.4-3.16 1.59 0 2.73.93 3.13 2.47.39 1.53.12 4.27.1 4.62zM96.45 28.71c-2.2-.24-4.11.43-5.72 2.37V19.19l-5.84.71v27.51h5.84v-1.63c.79.56 1.55 1.24 2.45 1.56 3.4 1.22 7.88.23 9.45-4.32 1.01-2.92.98-5.91.22-8.86-.83-3.28-3.02-5.09-6.4-5.45zm.88 11.92c-.26 1.81-1.7 2.76-3.41 2.63-.43 0-.82-.12-1.16-.26-1.38-.79-1.8-2.12-1.92-2.96-.1-1.29-.2-3.99.43-5.26.53-.98 1.47-1.51 2.7-1.55 1.76-.1 3.09.81 3.35 2.6.22 1.57.23 3.23 0 4.8z"/></svg>